<svg width="49" height="24" viewBox="0 0 49 24" fill="none" xmlns="http://www.w3.org/2000/svg">
<path d="M38.2969 11.728H34.2915V15.0034H38.9443V16H33.0728V6.75781H38.8809V7.76074H34.2915V10.7314H38.2969V11.728ZM47.5645 16H46.3394L41.6865 8.87793V16H40.4614V6.75781H41.6865L46.3521 13.9116V6.75781H47.5645V16Z" fill="#2C2C2C"/>
<path d="M20.356 5H3.48602C2.66529 5 2 5.66529 2 6.48602V16.514C2 17.3347 2.66529 18 3.48602 18H20.356C21.1767 18 21.8421 17.3347 21.8421 16.514V6.48602C21.8421 5.66529 21.1768 5 20.356 5Z" fill="#41479B"/>
<path d="M21.8215 6.2404C21.7044 5.53667 21.093 5 20.356 5H19.9694L13.6316 9.15238V5.00004H10.2105V9.15242L3.87267 5.00004H3.48602C2.74904 5.00004 2.13769 5.53667 2.02058 6.24044L7.43754 9.78953H2V13.2106H7.43754L2.02058 16.7596C2.13769 17.4633 2.74904 18 3.48602 18H3.87267L10.2105 13.8476V18H13.6316V13.8476L19.9694 18H20.356C21.093 18 21.7044 17.4634 21.8215 16.7596L16.4045 13.2105H21.8421V9.78945H16.4045L21.8215 6.2404Z" fill="#F5F5F5"/>
<path d="M12.9474 5H10.8947V10.4737H2V12.5263H10.8947V18H12.9474V12.5263H21.8421V10.4737H12.9474V5Z" fill="#FF4B55"/>
<path d="M2.96078 17.9043L10.1916 13.2107H8.93491L2.35742 17.4803C2.51837 17.6681 2.7252 17.8153 2.96078 17.9043Z" fill="#FF4B55"/>
<path d="M15.4237 13.2107H14.167L21.1705 17.7567C21.3664 17.628 21.53 17.4542 21.6466 17.25L15.4237 13.2107Z" fill="#FF4B55"/>
<path d="M2.15674 5.8213L8.26941 9.78922H9.52613L2.59954 5.29297C2.41356 5.4314 2.26137 5.61238 2.15674 5.8213Z" fill="#FF4B55"/>
<path d="M14.8886 9.78965L21.4781 5.51218C21.3154 5.32496 21.1069 5.17862 20.8697 5.09131L13.6318 9.78965H14.8886Z" fill="#FF4B55"/>
</svg>